<svg width="552" height="553" viewBox="0 0 552 553" fill="none" xmlns="http://www.w3.org/2000/svg">
<path d="M541.918 268.708C546.885 272.3 546.885 279.7 541.918 283.292L299.275 458.799C293.323 463.103 285 458.851 285 451.506L285 100.494C285 93.1488 293.323 88.8967 299.275 93.2013L541.918 268.708Z" fill="#FFDD00"/>
<path d="M171 25.1917C171 17.0658 171 13.0028 172.682 10.8373C174.146 8.95233 176.376 7.81959 178.761 7.74839C181.502 7.66659 184.784 10.0622 191.347 14.8533L215.747 32.6653C217.672 34.0705 218.634 34.773 219.329 35.6716C219.944 36.4673 220.404 37.372 220.684 38.3381C221 39.429 221 40.6206 221 43.0037V509.943C221 512.345 221 513.546 220.679 514.644C220.396 515.616 219.93 516.526 219.306 517.324C218.603 518.226 217.628 518.928 215.679 520.331L191.279 537.899C184.731 542.614 181.456 544.971 178.725 544.877C176.347 544.795 174.128 543.659 172.672 541.777C171 539.615 171 535.581 171 527.511V25.1917Z" fill="#D9D9D9"/>
<path d="M74 86.6172C74 81.7139 74 79.2623 75.0209 77.9206C75.9101 76.7519 77.2682 76.0332 78.7346 75.9553C80.4182 75.8658 82.4453 77.2447 86.4995 80.0025L117.5 101.089C118.78 101.96 119.42 102.396 119.883 102.967C120.293 103.473 120.601 104.054 120.788 104.677C121 105.381 121 106.156 121 107.704V431.913C121 433.411 121 434.159 120.801 434.844C120.624 435.45 120.334 436.018 119.946 436.516C119.508 437.079 118.902 437.518 117.689 438.395L86.6889 460.821C82.593 463.784 80.545 465.265 78.8358 465.209C77.3478 465.16 75.9591 464.451 75.0473 463.274C74 461.922 74 459.394 74 454.339V86.6172Z" fill="#D9D9D9" fill-opacity="0.7"/>
<path d="M0 165.88C0 160.764 0 158.205 1.05765 156.85C1.97815 155.67 3.37883 154.964 4.87494 154.927C6.59395 154.884 8.64972 156.406 12.7613 159.451L27.7613 170.56C28.9484 171.439 29.542 171.879 29.9703 172.439C30.3496 172.934 30.6328 173.496 30.8053 174.096C31 174.773 31 175.512 31 176.989V365.722C31 367.11 31 367.804 30.8258 368.447C30.6715 369.016 30.4177 369.554 30.076 370.034C29.6905 370.577 29.1544 371.018 28.0822 371.9L13.0822 384.239C8.90426 387.676 6.81531 389.394 5.05306 389.413C3.52089 389.429 2.06585 388.742 1.10506 387.548C0 386.175 0 383.47 0 378.061V165.88Z" fill="#D9D9D9" fill-opacity="0.39"/>
</svg>
